<?xml version="1.0" encoding="utf-8"?>
<!-- Generator: Adobe Illustrator 26.1.0, SVG Export Plug-In . SVG Version: 6.00 Build 0)  -->
<svg version="1.1" id="Layer_1" xmlns="http://www.w3.org/2000/svg" xmlns:xlink="http://www.w3.org/1999/xlink" x="0px" y="0px"
	 viewBox="0 0 50 50" style="enable-background:new 0 0 50 50;" xml:space="preserve">
<style type="text/css">
	.st0{fill:#F7EDE5;}
</style>
<g>
	<path class="st0" d="M2.4,19.4v27.4c0,0.4,0.4,0.8,0.8,0.8h43.7c0.4,0,0.8-0.4,0.8-0.8V19c0-0.4-0.4-0.8-0.8-0.8H11.3
		c-0.2,0-0.3,0-0.5,0c-1.7-0.2-2.9-1.9-2.7-3.6c0.7-5.2,3.8-9.7,8.4-12.3c8.2-4.7,18.6-1.9,23.3,6.2c0.3,0.6,0.1,1.3-0.4,1.6
		c-0.6,0.3-1.3,0.1-1.6-0.4c-4.1-7-13-9.4-20.1-5.4c-3.9,2.3-6.5,6.2-7.2,10.6c-0.1,0.4,0.2,0.8,0.7,0.9c0,0,0.1,0,0.1,0l35.6,0
		c1.8,0,3.2,1.4,3.2,3.2v27.8c0,1.8-1.4,3.2-3.2,3.2H3.2C1.4,50,0,48.6,0,46.8V19.4c0-0.7,0.5-1.2,1.2-1.2
		C1.8,18.3,2.4,18.8,2.4,19.4L2.4,19.4z"/>
</g>
</svg>
